<svg data-name="Group 200059" xmlns="http://www.w3.org/2000/svg" width="369.915" height="196.662" viewBox="0 0 369.915 196.662">
    <defs>
        <clipPath id="m7qy129kqa">
            <path data-name="Rectangle 115605" style="fill:none" d="M0 0h369.915v195.904H0z"/>
        </clipPath>
        <clipPath id="l8iid8pb0b">
            <path data-name="Rectangle 115607" style="fill:none" d="M0 0h22.065v13.468H0z"/>
        </clipPath>
        <clipPath id="xhbpu574fc">
            <path data-name="Rectangle 115608" style="fill:none" d="M0 0h369.915v196.662H0z"/>
        </clipPath>
    </defs>
    <g data-name="Group 200054">
        <g data-name="Group 200053" style="clip-path:url(#m7qy129kqa)">
            <path data-name="Path 343026" d="M369.822 2113.646H.093a.093.093 0 1 1 0-.186h369.729a.093.093 0 1 1 0 .186" transform="translate(0 -1916.742)" style="fill:#1b1a1f"/>
            <path data-name="Path 343027" d="M1186.135 838.966c.419 1.267-5.421 4.337-13.044 6.856s-14.143 3.533-14.562 2.266 5.422-4.338 13.045-6.857 14.142-3.533 14.562-2.266" transform="translate(-1050.675 -760.381)" style="fill:#1b1a1f"/>
            <path data-name="Path 343028" d="m1131.007 511.842 8.094 43.717c1.824 6.888.981 11.449-5.195 13.842a12.7 12.7 0 0 1-14.2-9.492l-11.5-42.243a11.764 11.764 0 0 1 22.794-5.824" transform="translate(-1004.751 -456.259)" style="fill:#fd9f84"/>
            <path data-name="Path 343029" d="m1297.958 628.749 17.969 1.345-10.263 6.863-33.108 42.134c-5.953 5.952-14.988 6.293-20.064-1.46l2.859-11.339z" transform="translate(-1135.913 -570.226)" style="fill:#fd9f84"/>
            <path data-name="Path 343030" d="M1346.3 660.229a.093.093 0 0 1-.062-.163l36.65-32.294a.093.093 0 1 1 .123.14l-36.65 32.294a.093.093 0 0 1-.062.023" transform="translate(-1220.902 -569.319)" style="fill:#1b1a1f"/>
            <path data-name="Path 343031" d="M1130.5 531.6c-.538-1.208-7-.189-14.547 2.3-7.451 2.462-13.2 5.451-13.063 6.767l-5.478-26.011a12.549 12.549 0 0 1 12.278-15.151h.273a12.551 12.551 0 0 1 11.7 8.014z" transform="translate(-995.018 -453.014)" style="fill:#b6d2ef"/>
            <path data-name="Path 343032" d="m1779.4 686.744-7.106-1.39 3.584 4.473a7.761 7.761 0 0 1 1.789-1.889c.947-.618 1.734-1.194 1.734-1.194" transform="translate(-1607.329 -621.562)" style="fill:#b8735f"/>
            <path data-name="Rectangle 115595" transform="translate(144.003 103.499)" style="fill:#fff" d="M0 0h67.184v28.658H0z"/>
            <path data-name="Path 343033" d="M1613.381 1139.8H1546.2a.093.093 0 0 1-.094-.093v-28.658a.093.093 0 0 1 .094-.093h67.183a.093.093 0 0 1 .093.093v28.658a.093.093 0 0 1-.093.093m-67.091-.186h67v-28.472h-67z" transform="translate(-1402.195 -1007.549)" style="fill:#1b1a1f"/>
            <path data-name="Path 343034" d="M1613.381 1117.013H1546.2a.093.093 0 0 1-.094-.093v-5.872a.093.093 0 0 1 .094-.093h67.183a.093.093 0 0 1 .093.093v5.872a.093.093 0 0 1-.093.093m-67.091-.186h67v-5.686h-67z" transform="translate(-1402.195 -1007.549)" style="fill:#1b1a1f"/>
            <path data-name="Rectangle 115596" transform="translate(151.954 113.971)" style="fill:#f77" d="M0 0h13.468v13.468H0z"/>
            <path data-name="Path 343035" d="M1903.653 1241.313h-28.112a.093.093 0 1 1 0-.186h28.112a.093.093 0 0 1 0 .186" transform="translate(-1700.884 -1125.604)" style="fill:#1b1a1f"/>
            <path data-name="Path 343036" d="M1903.653 1295.994h-28.112a.093.093 0 0 1 0-.186h28.112a.093.093 0 0 1 0 .186" transform="translate(-1700.884 -1175.195)" style="fill:#1b1a1f"/>
            <path data-name="Path 343037" d="M1903.653 1350.675h-28.112a.093.093 0 1 1 0-.186h28.112a.093.093 0 0 1 0 .186" transform="translate(-1700.884 -1224.787)" style="fill:#1b1a1f"/>
            <path data-name="Path 343038" d="M2127.949 1129.244a1.522 1.522 0 1 1 1.522-1.522 1.524 1.524 0 0 1-1.522 1.522m0-2.858a1.336 1.336 0 1 0 1.336 1.336 1.337 1.337 0 0 0-1.336-1.336" transform="translate(-1928.501 -1021.374)" style="fill:#1b1a1f"/>
            <path data-name="Path 343039" d="M2172.329 1129.244a1.522 1.522 0 1 1 1.523-1.522 1.524 1.524 0 0 1-1.523 1.522m0-2.858a1.336 1.336 0 1 0 1.336 1.336 1.337 1.337 0 0 0-1.336-1.336" transform="translate(-1968.75 -1021.374)" style="fill:#1b1a1f"/>
            <path data-name="Path 343040" d="M2216.709 1129.244a1.522 1.522 0 1 1 1.522-1.522 1.524 1.524 0 0 1-1.522 1.522m0-2.858a1.336 1.336 0 1 0 1.336 1.336 1.338 1.338 0 0 0-1.336-1.336" transform="translate(-2009 -1021.374)" style="fill:#1b1a1f"/>
            <path data-name="Rectangle 115597" transform="translate(144.428 33.03)" style="fill:#fff" d="M0 0h67.184v28.658H0z"/>
            <path data-name="Path 343041" d="M1617.954 382.709h-67.184a.093.093 0 0 1-.093-.093v-28.658a.093.093 0 0 1 .093-.093h67.184a.093.093 0 0 1 .093.093v28.658a.093.093 0 0 1-.093.093m-67.091-.186h67v-28.472h-67z" transform="translate(-1406.342 -320.928)" style="fill:#1b1a1f"/>
            <path data-name="Path 343042" d="M1617.954 359.923h-67.184a.093.093 0 0 1-.093-.093v-5.872a.093.093 0 0 1 .093-.093h67.184a.093.093 0 0 1 .093.093v5.872a.093.093 0 0 1-.093.093m-67.091-.186h67v-5.686h-67z" transform="translate(-1406.342 -320.928)" style="fill:#1b1a1f"/>
            <path data-name="Rectangle 115598" transform="translate(148.837 43.502)" style="fill:#f77" d="M0 0h26.247v13.468H0z"/>
            <path data-name="Path 343043" d="M1970.875 484.223h-28.112a.093.093 0 0 1 0-.186h28.112a.093.093 0 0 1 0 .186" transform="translate(-1761.85 -438.983)" style="fill:#1b1a1f"/>
            <path data-name="Path 343044" d="M1970.875 538.9h-28.112a.093.093 0 0 1 0-.186h28.112a.093.093 0 0 1 0 .186" transform="translate(-1761.85 -488.575)" style="fill:#1b1a1f"/>
            <path data-name="Path 343045" d="M1970.875 593.586h-28.112a.093.093 0 0 1 0-.186h28.112a.093.093 0 1 1 0 .186" transform="translate(-1761.85 -538.167)" style="fill:#1b1a1f"/>
            <path data-name="Path 343046" d="M1627.339 503.318a.1.1 0 0 1-.063-.024.093.093 0 0 1-.005-.132l4.531-4.943a.1.1 0 0 1 .07-.03.091.091 0 0 1 .069.032l3.31 3.794 4.79-5.142a.093.093 0 0 1 .067-.03.088.088 0 0 1 .067.027l3.067 3.081 4.547-4.209a.093.093 0 0 1 .127.137l-4.613 4.27a.093.093 0 0 1-.129 0l-3.062-3.076-4.795 5.147a.1.1 0 0 1-.07.03.093.093 0 0 1-.068-.032l-3.309-3.793-4.461 4.866a.092.092 0 0 1-.068.03" transform="translate(-1475.784 -449.576)" style="fill:#1b1a1f"/>
            <path data-name="Path 343047" d="M1621.434 571.345a.577.577 0 1 1-.576-.577.577.577 0 0 1 .576.577" transform="translate(-1469.468 -517.641)" style="fill:#1b1a1f"/>
            <path data-name="Path 343048" d="M1671.293 518.794a.577.577 0 1 1-.577-.577.577.577 0 0 1 .577.577" transform="translate(-1514.685 -469.982)" style="fill:#1b1a1f"/>
            <path data-name="Path 343049" d="M1707.876 556.668a.576.576 0 1 1-.577-.577.577.577 0 0 1 .577.577" transform="translate(-1547.864 -504.331)" style="fill:#1b1a1f"/>
            <path data-name="Path 343050" d="M1761.054 504.633a.577.577 0 1 1-.576-.577.576.576 0 0 1 .576.577" transform="translate(-1596.092 -457.139)" style="fill:#1b1a1f"/>
            <path data-name="Path 343051" d="M1793.212 534.836a.577.577 0 1 1-.577-.577.577.577 0 0 1 .577.577" transform="translate(-1625.256 -484.531)" style="fill:#1b1a1f"/>
            <path data-name="Path 343052" d="M1843.588 490.729a.577.577 0 1 1-.577-.577.577.577 0 0 1 .577.577" transform="translate(-1670.942 -444.529)" style="fill:#1b1a1f"/>
            <path data-name="Rectangle 115599" transform="translate(204.783 42.728)" style="fill:#1b1a1f" d="M0 0h20.352v8.097H0z"/>
            <path data-name="Rectangle 115600" transform="translate(206.706 40.714)" style="fill:#30de83" d="M0 0h20.352v8.097H0z"/>
            <path data-name="Rectangle 115601" transform="translate(204.783 54.865)" style="fill:#1b1a1f" d="M0 0h20.352v8.097H0z"/>
            <path data-name="Rectangle 115602" transform="translate(206.706 52.852)" style="fill:#fff" d="M0 0h20.352v8.097H0z"/>
            <path data-name="Path 343053" d="M2240.205 575.1h-20.352a.093.093 0 0 1-.094-.093v-8.1a.093.093 0 0 1 .094-.093h20.352a.093.093 0 0 1 .093.093v8.1a.093.093 0 0 1-.093.093m-20.26-.186h20.167V567h-20.167z" transform="translate(-2013.148 -514.059)" style="fill:#1b1a1f"/>
            <path data-name="Path 343054" d="M2132.522 372.154a1.522 1.522 0 1 1 1.522-1.522 1.524 1.524 0 0 1-1.522 1.522m0-2.858a1.336 1.336 0 1 0 1.336 1.336 1.337 1.337 0 0 0-1.336-1.336" transform="translate(-1932.649 -334.754)" style="fill:#1b1a1f"/>
            <path data-name="Path 343055" d="M2176.9 372.154a1.522 1.522 0 1 1 1.522-1.522 1.524 1.524 0 0 1-1.522 1.522m0-2.858a1.336 1.336 0 1 0 1.336 1.336 1.337 1.337 0 0 0-1.336-1.336" transform="translate(-1972.899 -334.754)" style="fill:#1b1a1f"/>
            <path data-name="Path 343056" d="M2221.282 372.154a1.522 1.522 0 1 1 1.522-1.522 1.524 1.524 0 0 1-1.522 1.522m0-2.858a1.336 1.336 0 1 0 1.336 1.336 1.338 1.338 0 0 0-1.336-1.336" transform="translate(-2013.148 -334.754)" style="fill:#1b1a1f"/>
            <path data-name="Rectangle 115603" transform="translate(144.215 68.265)" style="fill:#fff" d="M0 0h67.184v28.658H0z"/>
            <path data-name="Path 343057" d="M1615.667 761.254h-67.184a.093.093 0 0 1-.093-.093V732.5a.093.093 0 0 1 .093-.093h67.184a.093.093 0 0 1 .093.093v28.658a.093.093 0 0 1-.093.093m-67.091-.186h67V732.6h-67z" transform="translate(-1404.268 -664.238)" style="fill:#1b1a1f"/>
            <path data-name="Path 343058" d="M1615.667 738.468h-67.184a.093.093 0 0 1-.093-.093V732.5a.093.093 0 0 1 .093-.093h67.184a.093.093 0 0 1 .093.093v5.872a.093.093 0 0 1-.093.093m-67.091-.186h67V732.6h-67z" transform="translate(-1404.268 -664.238)" style="fill:#1b1a1f"/>
            <path data-name="Rectangle 115604" transform="translate(139.41 78.737)" style="fill:#1b1a1f" d="M0 0h22.065v13.468H0z"/>
            <path data-name="Path 343059" d="M2099.711 862.768h-8.223a.093.093 0 1 1 0-.186h8.223a.093.093 0 0 1 0 .186" transform="translate(-1896.73 -782.294)" style="fill:#1b1a1f"/>
            <path data-name="Path 343060" d="M1981.082 862.768h-6.426a.093.093 0 0 1 0-.186h6.426a.093.093 0 1 1 0 .186" transform="translate(-1790.774 -782.294)" style="fill:#1b1a1f"/>
            <path data-name="Path 343061" d="M1883.793 862.768h-5.965a.093.093 0 0 1 0-.186h5.965a.093.093 0 1 1 0 .186" transform="translate(-1702.959 -782.294)" style="fill:#1b1a1f"/>
            <path data-name="Path 343062" d="M2117.772 917.449h-6.372a.093.093 0 0 1 0-.186h6.372a.093.093 0 0 1 0 .186" transform="translate(-1914.79 -831.885)" style="fill:#1b1a1f"/>
            <path data-name="Path 343063" d="M1961.616 917.449H1948.1a.093.093 0 0 1 0-.186h13.511a.093.093 0 1 1 0 .186" transform="translate(-1766.693 -831.885)" style="fill:#1b1a1f"/>
            <path data-name="Path 343064" d="M1882.063 917.449h-4.234a.093.093 0 1 1 0-.186h4.234a.093.093 0 1 1 0 .186" transform="translate(-1702.959 -831.885)" style="fill:#1b1a1f"/>
            <path data-name="Path 343065" d="M2023.054 972.13h-16.092a.093.093 0 1 1 0-.186h16.092a.093.093 0 0 1 0 .186" transform="translate(-1820.072 -881.476)" style="fill:#1b1a1f"/>
            <path data-name="Path 343066" d="M1888.118 972.13h-10.29a.093.093 0 1 1 0-.186h10.29a.093.093 0 1 1 0 .186" transform="translate(-1702.959 -881.476)" style="fill:#1b1a1f"/>
        </g>
    </g>
    <g data-name="Group 200056">
        <g data-name="Group 200055" style="clip-path:url(#l8iid8pb0b)" transform="translate(136.445 75.86)">
            <path data-name="Rectangle 115606" style="fill:#6b50d7" d="M0 0h22.065v13.468H0z"/>
            <path data-name="Path 343067" d="M1405.577 799.583a1.489 1.489 0 0 1-.506-.084.986.986 0 0 1-.6-.588c-.717-1.776 1.782-6.828 4.2-11.713 1.949-3.939 3.79-7.66 3.378-8.666a.343.343 0 0 0-.211-.209c-1.073-.371-4.523 4.349-7.86 8.914-3.891 5.323-7.914 10.827-9.83 10.919a.821.821 0 0 1-.683-.282c-1.425-1.6 2.083-6.214 5.476-10.674 2.457-3.229 4.777-6.279 4.483-7.351a.457.457 0 0 0-.29-.316c-2.81-1.138-14.172 11.99-14.286 12.123l-.141-.122c.471-.546 11.565-13.362 14.5-12.174a.639.639 0 0 1 .4.439c.318 1.161-1.921 4.1-4.514 7.513-3.191 4.2-6.809 8.95-5.485 10.437a.633.633 0 0 0 .535.22c1.827-.087 6-5.8 9.689-10.843s6.868-9.4 8.071-8.98a.526.526 0 0 1 .322.314c.444 1.083-1.329 4.668-3.383 8.819-2.287 4.623-4.88 9.863-4.194 11.561a.8.8 0 0 0 .487.483c3.563 1.278 13-13.858 13.1-14.011l.158.1c-.374.6-8.839 14.171-12.812 14.172" transform="translate(-1395.895 -781.553)" style="fill:#f77"/>
        </g>
    </g>
    <g data-name="Group 200058">
        <g data-name="Group 200057" style="clip-path:url(#xhbpu574fc)">
            <path data-name="Path 343068" d="M2130.234 750.7a1.522 1.522 0 1 1 1.522-1.522 1.524 1.524 0 0 1-1.522 1.522m0-2.858a1.336 1.336 0 1 0 1.336 1.336 1.338 1.338 0 0 0-1.336-1.336" transform="translate(-1930.575 -678.064)" style="fill:#1b1a1f"/>
            <path data-name="Path 343069" d="M2174.615 750.7a1.522 1.522 0 1 1 1.522-1.522 1.524 1.524 0 0 1-1.522 1.522m0-2.858a1.336 1.336 0 1 0 1.336 1.336 1.337 1.337 0 0 0-1.336-1.336" transform="translate(-1970.824 -678.064)" style="fill:#1b1a1f"/>
            <path data-name="Path 343070" d="M2219 750.7a1.522 1.522 0 1 1 1.522-1.522A1.524 1.524 0 0 1 2219 750.7m0-2.858a1.336 1.336 0 1 0 1.336 1.336 1.338 1.338 0 0 0-1.336-1.336" transform="translate(-2011.073 -678.064)" style="fill:#1b1a1f"/>
            <path data-name="Path 343071" d="M1005.531 156.234c-3.222.45-13.779-3.273-13.779-3.273l4.364-29.458 15.023 17.133-2.356 13.991s-.028 1.156-3.251 1.606" transform="translate(-899.441 -112.007)" style="fill:#fd9f84"/>
            <path data-name="Path 343072" d="m1099.864 316.782-1.169 6.943-8.925-6.138z" transform="translate(-988.335 -287.297)" style="fill:#b8735f"/>
            <path data-name="Path 343073" d="M1040.642 15.4s2.782 15.145-1.143 22.619-17.049-.8-18.105-3.049-7.4-12.891-1.852-21.209c4.505-6.754 18.467-9 21.1 1.639" transform="translate(-922.607 -7.303)" style="fill:#fd9f84"/>
            <path data-name="Path 343074" d="M1183.329 195.618a1.188 1.188 0 0 0-.219.7c0 .338.062.816.451.833.6.026.757-1.051.43-1.5-.279-.381-.51-.241-.662-.038" transform="translate(-1072.987 -177.227)" style="fill:#1b1a1f"/>
            <path data-name="Path 343075" d="M1250.676 206.96a1.19 1.19 0 0 0-.219.7c0 .338.062.816.452.833.6.026.757-1.051.43-1.5-.279-.381-.51-.241-.662-.038" transform="translate(-1134.066 -187.513)" style="fill:#1b1a1f"/>
            <path data-name="Path 343076" d="M1230.128 211.557a.093.093 0 0 1-.027-.182c1-.306 1.289-.788 1.238-1.108a.619.619 0 0 0-.684-.446.428.428 0 0 1-.309-.133c-.66-.641-.7-3.674-.7-3.8a.093.093 0 1 1 .186 0c0 .031.035 3.084.64 3.671a.24.24 0 0 0 .175.081.8.8 0 0 1 .872.6c.066.412-.258.974-1.367 1.315a.092.092 0 0 1-.027 0" transform="translate(-1115.195 -186.636)" style="fill:#1b1a1f"/>
            <path data-name="Path 343077" d="M1171 175.477a.094.094 0 0 1-.06-.021 6.1 6.1 0 0 0-3.864-.863.093.093 0 0 1-.005-.186c2.779-.08 3.941.866 3.989.906a.093.093 0 0 1-.06.164" transform="translate(-1058.36 -158.168)" style="fill:#1b1a1f"/>
            <path data-name="Path 343078" d="M1240.643 180.752a.094.094 0 0 1-.053-.017.093.093 0 0 1-.023-.129c.029-.042.74-1.023 3.48-.561a.093.093 0 1 1-.03.184c-2.607-.439-3.29.474-3.3.484a.093.093 0 0 1-.076.039" transform="translate(-1125.081 -163.175)" style="fill:#1b1a1f"/>
            <path data-name="Path 343079" d="M1179.882 276.353a5.1 5.1 0 0 1-1.16-.736 5.5 5.5 0 0 0-1.152-.936c-.552-.285-.777.237-.638.715a2.627 2.627 0 0 0 3.09 1.91.652.652 0 0 0 .324-.175c.26-.3-.076-.568-.465-.778" transform="translate(-1067.348 -249.04)" style="fill:#fff"/>
            <path data-name="Path 343080" d="M1315.032 1355.617v.147a.4.4 0 0 0 0-.147" transform="translate(-1192.63 -1229.438)" style="fill:#1b1a1f"/>
            <path data-name="Path 343081" d="M555.87 1201.347c-.391 2.039 15.156 7.153 34.821 10.928s35.443 4.847 35.834 2.808-14.752-6.415-34.417-10.19-35.847-5.584-36.238-3.545" transform="translate(-504.124 -1088.757)" style="fill:#1b1a1f"/>
            <path data-name="Path 343082" d="m868 1172.8 1.56 64.958-34.66-2.7-6.246-49.321 15.6-17.6z" transform="translate(-751.527 -1059.416)" style="fill:#1b1a1f"/>
            <path data-name="Path 343083" d="m875.358 1579.769 2.452-31.538-4.547 12.177z" transform="translate(-791.982 -1404.123)" style="fill:#1b1a1f"/>
            <path data-name="Path 343084" d="m387.166 1121.9-29.572 67.2 40.41 3.142 29.313-64.558z" transform="translate(-324.31 -1017.475)" style="fill:#1b1a1f"/>
            <path data-name="Path 343085" d="m584.84 416.038 12.143-1.749c5.174 3.511 8.6 4.556 16.579 3.305l12 6.368 1.415 14.727-.334 63.217c-.321-2.1-15.214-6.356-34.418-10.044-19.589-3.762-35.725-5.57-36.225-3.562.2-1.008 9.1-39.237 16.394-59.654 2.313-6.471 5.677-11.438 12.449-12.6" transform="translate(-504.244 -375.727)" style="fill:#b6d2ef"/>
            <path data-name="Path 343086" d="M1314.133 794.116a.093.093 0 0 1-.093-.094l.334-57.544a.093.093 0 0 1 .094-.093.093.093 0 0 1 .093.094l-.334 57.544a.093.093 0 0 1-.093.092" transform="translate(-1191.73 -667.844)" style="fill:#1b1a1f"/>
            <path data-name="Path 343087" d="M859.759 822.045c.326 1.295-5.72 3.935-13.5 5.9s-14.36 2.5-14.687 1.21 5.72-3.935 13.5-5.9 14.36-2.5 14.687-1.21" transform="translate(-754.154 -744.892)" style="fill:#1b1a1f"/>
            <path data-name="Path 343088" d="m841.577 496.941 7.917 38.116c1.824 6.888.981 11.449-5.194 13.842a12.7 12.7 0 0 1-14.2-9.492l-9.225-34.5c-1.436-5.834-.045-17.257 5.6-19.312 6.5-2.364 13.33 4.663 15.1 11.348" transform="translate(-743.993 -439.97)" style="fill:#fd9f84"/>
            <path data-name="Path 343089" d="m1004.387 613.977 9.947 8.844-31.5 38.107c-5.954 5.952-13.785 6.05-19.885.249l2.681-13.048z" transform="translate(-873.318 -556.829)" style="fill:#fd9f84"/>
            <path data-name="Path 343090" d="M824.561 500.816c-.45-1.243-6.971-.694-14.675 1.25-7.609 1.919-13.558 4.484-13.517 5.808l-3.588-26.338a12.55 12.55 0 0 1 13.339-14.226l.272.02a12.55 12.55 0 0 1 11.093 8.837z" transform="translate(-718.884 -423.784)" style="fill:#b6d2ef"/>
            <path data-name="Path 343091" d="M797.415 699.7a.093.093 0 0 1-.092-.078L793.9 678.6a.093.093 0 0 1 .184-.03l3.424 21.015a.093.093 0 0 1-.077.107h-.015" transform="translate(-720.003 -615.342)" style="fill:#1b1a1f"/>
            <path data-name="Path 343092" d="M1082.664 642.906a.093.093 0 0 1-.089-.069l-5.234-19.006a.093.093 0 1 1 .179-.049l5.234 19.006a.093.093 0 0 1-.065.114.1.1 0 0 1-.025 0" transform="translate(-977.06 -565.659)" style="fill:#1b1a1f"/>
            <path data-name="Path 343093" d="M1024.323 132.373a4.407 4.407 0 0 1-3.926 2.593s-4.161 3.55-7.333 3.256c0 0-3.749 5.733-5.4 6.639 0 0-1.66.176-2.417-4.215 0 0-.137-6.617 2.417-7.551s16.655-.722 16.655-.722" transform="translate(-911.683 -120.033)" style="fill:#1b1a1f"/>
            <path data-name="Path 343094" d="m1016.453 14.933 24.842-2.97S1042.351-1.276 1028.1.1c-13.66 1.318-11.645 14.833-11.645 14.833" transform="translate(-921.748 .001)" style="fill:#6b50d7"/>
            <path data-name="Path 343095" d="m1126.7 108.57 26.63-3.117s-.577-.824-2.471-.824-24.511 3.941-24.511 3.941z" transform="translate(-1021.506 -94.89)" style="fill:#1b1a1f"/>
            <path data-name="Path 343096" d="M1207.354 66.718a2.212 2.212 0 1 1-2.212-2.212 2.212 2.212 0 0 1 2.212 2.212" transform="translate(-1090.964 -58.502)" style="fill:#fff"/>
            <path data-name="Path 343097" d="M1049.118 148.036s-1.957-5.458-5.782-5.42-2.938 6.6.526 9.453z" transform="translate(-943.96 -129.341)" style="fill:#fd9f84"/>
            <path data-name="Path 343098" d="M1072.155 175.224a.092.092 0 0 1-.077-.041l-2.009-3.008a.093.093 0 0 1 .155-.1l2.008 3.008a.094.094 0 0 1 .016.051.093.093 0 0 1-.042.078.094.094 0 0 1-.052.016" transform="translate(-970.455 -156.017)" style="fill:#1b1a1f"/>
            <path data-name="Path 343099" d="m1366.589 615.725-1.7-1.748-4.441 3.77c.826 1.866 3.577 2.084 5.124 4.447a48.746 48.746 0 0 0 4.2 5.573c.177.2.351.39.52.571l.485-.59 1.919-2.338 1.519-1.85z" transform="translate(-1233.819 -556.829)" style="fill-rule:evenodd;fill:#fd9f84"/>
            <path data-name="Path 343100" d="M1414.9 427.393a2.046 2.046 0 0 1 .663-.707c1.738-1.136 8.029-4.2 9.972-5.113 1.227-.574 3.085.506 2.348 2.022-.378.778-1.468 1.186-3.253 2.14a43.076 43.076 0 0 0-6.2 4.425l8.167 7.948-9.119 10.815-9.325-9.583z" transform="translate(-1277.083 -382.192)" style="fill-rule:evenodd;fill:#fd9f84"/>
            <path data-name="Path 343101" d="M1509.552 436.983s7.542-5.668 10.727-7.9c1.936-1.358 4.181.953 2.665 2.549-1.077 1.134-10.387 9.253-10.387 9.253z" transform="translate(-1369.044 -388.77)" style="fill-rule:evenodd;fill:#fd9f84"/>
            <path data-name="Path 343102" d="M1530.452 475.29s8.7-7.828 9.824-8.07 2.949-.174 2.947 1.9-10.358 10.727-10.358 10.727z" transform="translate(-1387.999 -423.644)" style="fill-rule:evenodd;fill:#fd9f84"/>
            <path data-name="Path 343103" d="M1557.627 521.123s5.011-4.838 5.526-5.5c.934-1.2-.691-3.728-2.889-2.188s-7.632 6.218-7.632 6.218z" transform="translate(-1408.114 -465.207)" style="fill-rule:evenodd;fill:#fd9f84"/>
            <path data-name="Path 343104" d="M1522.628 439.195a.093.093 0 0 1-.056-.168L1532 432.1a.093.093 0 0 1 .111.15l-9.426 6.926a.09.09 0 0 1-.055.018" transform="translate(-1380.819 -391.864)" style="fill:#1b1a1f"/>
            <path data-name="Path 343105" d="M1550.484 473.7a.093.093 0 0 1-.056-.167l8.774-6.6a.093.093 0 0 1 .112.149l-8.773 6.6a.092.092 0 0 1-.056.019" transform="translate(-1406.083 -423.459)" style="fill:#1b1a1f"/>
            <path data-name="Path 343106" d="M1576.175 518.084a.093.093 0 0 1-.058-.166l7.031-5.63a.093.093 0 0 1 .116.146l-7.031 5.63a.094.094 0 0 1-.058.02" transform="translate(-1429.382 -464.587)" style="fill:#1b1a1f"/>
            <path data-name="Path 343107" d="m1477.512 668.142-2.864-5.386 4.853 3.005z" transform="translate(-1337.39 -601.068)" style="fill-rule:evenodd;fill:#b8735f"/>
            <path data-name="Path 343108" d="M1059.182 641.706a.093.093 0 0 1-.062-.163l32.4-28.548a.093.093 0 0 1 .123.14l-32.4 28.548a.093.093 0 0 1-.062.023" transform="translate(-960.51 -555.918)" style="fill:#1b1a1f"/>
            <path data-name="Path 343109" d="M713.529 1093.646c-3.35 1.057-15.256-1.014-15.256-1.014l-.636-26.335 19.065 15.547v9.51s.178 1.236-3.173 2.293" transform="translate(-632.702 -967.047)" style="fill:#fd9f84"/>
            <path data-name="Path 343110" d="M792.265 1237.2v8.108l-11.31-5.264z" transform="translate(-708.264 -1122.04)" style="fill:#b8735f"/>
            <path data-name="Path 343111" d="M701.564 926.78s5.678 15.624 2.839 24.285-18.293 2.208-19.821 0-10.19-12.4-5.774-22.247 18.851-11.039 22.757-2.038" transform="translate(-614.499 -834.982)" style="fill:#fd9f84"/>
            <path data-name="Path 343112" d="m636.431 925.9 4.308-8.27s4.915-1.061 5.661-3.142l2.151-6a31.678 31.678 0 0 0 5.293-.148 18.389 18.389 0 0 0 7.371-2.357c1.7-.989 3.335-2.334 3.726-3.969 1.7-7.113-.511-5.766-9.777-3.906 0 0-24.1-6.758-23.6 5.491 0 0-6.34 12.311 4.863 22.3" transform="translate(-571.162 -812.825)" style="fill:#1b1a1f"/>
            <path data-name="Path 343113" d="M713.784 1083.706s-3.062-5.46-7.127-4.733-1.945 7.554 2.255 9.969z" transform="translate(-638.905 -978.484)" style="fill:#fd9f84"/>
            <path data-name="Path 343114" d="M769.4 859.682s9.61-.811 11.718-2.216c4.076-2.717 6.806-1.273 7.231.085s.136 3.672-2.39 5.52c-3.954 2.892-9.765 1.443-12.907.509a5.258 5.258 0 0 1-3.651-3.9" transform="translate(-697.786 -776.26)" style="fill:#1b1a1f"/>
            <path data-name="Path 343115" d="M866.008 1116.16a1.284 1.284 0 0 0-.107.789c.057.36.212.858.63.806.648-.081.618-1.255.189-1.673-.365-.356-.586-.165-.711.079" transform="translate(-785.287 -1012.019)" style="fill:#1b1a1f"/>
            <path data-name="Path 343116" d="M939.74 1116.16a1.281 1.281 0 0 0-.107.789c.057.36.212.858.63.806.648-.081.617-1.255.189-1.673-.365-.356-.586-.165-.711.079" transform="translate(-852.156 -1012.019)" style="fill:#1b1a1f"/>
            <path data-name="Path 343117" d="M738.742 1113.419a.092.092 0 0 1-.068-.029l-2.674-2.842a.093.093 0 1 1 .136-.128l2.677 2.842a.093.093 0 0 1 0 .132.092.092 0 0 1-.063.025" transform="translate(-667.468 -1007.037)" style="fill:#1b1a1f"/>
            <path data-name="Path 343118" d="M868.752 1201.154h-.008a4.4 4.4 0 0 1-3.857-2.574.093.093 0 0 1 .175-.063 4.217 4.217 0 0 0 3.7 2.451.093.093 0 0 1-.008.186" transform="translate(-784.379 -1086.905)" style="fill:#1b1a1f"/>
            <path data-name="Path 343119" d="M916.8 1125.935a2.662 2.662 0 0 1-.555-.054.093.093 0 0 1 .042-.182 2.382 2.382 0 0 0 1.839-.375c.61-.5.678-1 .537-1.3a.787.787 0 0 0-.908-.375.451.451 0 0 1-.347-.085c-.815-.562-1.4-3.782-1.42-3.919a.093.093 0 0 1 .183-.032c.006.033.591 3.28 1.343 3.8a.269.269 0 0 0 .207.056.966.966 0 0 1 1.112.48c.17.366.1.958-.589 1.522a2.277 2.277 0 0 1-1.443.467" transform="translate(-830.73 -1015.331)" style="fill:#1b1a1f"/>
            <path data-name="Path 343120" d="M843.749 1091.812a.093.093 0 0 1-.051-.171 4.507 4.507 0 0 1 4.437 0 .093.093 0 0 1-.1.16 4.314 4.314 0 0 0-4.241 0 .093.093 0 0 1-.05.015" transform="translate(-765.13 -989.48)" style="fill:#1b1a1f"/>
            <path data-name="Path 343121" d="M924.292 1086.259a.093.093 0 0 1-.064-.161 5.99 5.99 0 0 1 3.57-1.188.093.093 0 1 1 .014.186 5.937 5.937 0 0 0-3.457 1.138.092.092 0 0 1-.064.025" transform="translate(-838.175 -983.927)" style="fill:#1b1a1f"/>
            <path data-name="Path 343122" d="M701.948 845.861s7.022-1.342 10.043-3.649 9.831-4.284 9.282 1.1-12.3 6.536-12.467 6.536-6.857-3.985-6.857-3.985" transform="translate(-636.612 -761.694)" style="fill:#1b1a1f"/>
            <path data-name="Path 343123" d="M1010.008 1746.455H1010a.094.094 0 0 1-.083-.1l2.809-27.984a.093.093 0 1 1 .185.019l-2.81 27.984a.093.093 0 0 1-.093.084" transform="translate(-915.913 -1558.348)" style="fill:#1b1a1f"/>
            <path data-name="Path 343124" d="M199.252 1398.9s-13.964 1.318-20.389 18.494c-3.169 8.47-9.223 23.964-11.739 35.26a10.522 10.522 0 0 0 10.271 12.81h12.185l17.918-53.26z" transform="translate(-151.336 -1268.695)" style="fill:#78ace2"/>
            <path data-name="Path 343125" d="m498.788 1377.868-39.088-34.184c-3.6-2.965-6.852-5.753-11.02-7.871-4.423-2.247-9.332-3.572-13.969-5.329-.031-.012-.317-.089-.324-.123l-.491-4.178c-6.014.906-19.682-.741-19.682-.741a29.334 29.334 0 0 0-.693 4.388l-16.329 2.45-12.069 66.564h59.644l1.609-21.611 38.7 20.784a10.659 10.659 0 0 0 13.348-4.067c2.75-4.372 4.19-12.608.368-16.083" transform="translate(-349.275 -1202.071)" style="fill:#78ace2"/>
            <path data-name="Path 343126" d="M700.252 1373.591a35.939 35.939 0 0 1-5.112-.358 25.632 25.632 0 0 1-5.869-1.469.093.093 0 1 1 .074-.171 25.474 25.474 0 0 0 5.83 1.457 38.164 38.164 0 0 0 14.977-.929.093.093 0 0 1 .047.18 39.42 39.42 0 0 1-9.946 1.291" transform="translate(-625.064 -1243.92)" style="fill:#1b1a1f"/>
            <path data-name="Path 343127" d="M470.486 1750.3a.1.1 0 0 1-.026 0 .093.093 0 0 1-.063-.115l4.475-15.26a.093.093 0 0 1 .179.052l-4.475 15.26a.093.093 0 0 1-.089.067" transform="translate(-426.61 -1573.379)" style="fill:#1b1a1f"/>
            <path data-name="Path 343128" d="m495.437 1900.519-45.137-1.529a.093.093 0 0 1 .006-.186l45.136 1.529a.093.093 0 0 1 0 .186" transform="translate(-408.303 -1722.065)" style="fill:#1b1a1f"/>
            <path data-name="Path 343129" d="m1365.551 1529.1 26.692-42.409 16.628 9.752-20.752 42.832z" transform="translate(-1238.447 -1348.31)" style="fill:#78abe2"/>
            <path data-name="Path 343130" d="M1667.153 1494.423c-.187.323-.814.364-1.748.167q-.275-.059-.585-.144l-.069-.019a33.408 33.408 0 0 1-6.948-3.157 42.664 42.664 0 0 1-3.93-2.55c-.14-.1-.278-.205-.411-.306a30.129 30.129 0 0 1-.646-.507c-1.76-1.428-2.728-2.623-2.419-3.158.335-.58 2.089-.249 4.483.73q.378.155.778.331l.2.089a43.442 43.442 0 0 1 3.89 2 30.039 30.039 0 0 1 6.657 4.9 5.613 5.613 0 0 1 .465.576c.31.449.417.808.283 1.041" transform="translate(-1496.73 -1346.291)" style="fill:#1b1a1f"/>
            <path data-name="Path 343131" d="M1896.828 1454.548a26.876 26.876 0 0 1-2.964 3.78c-1.48 1.471-10.425 2.651-10.425 2.651z" transform="translate(-1708.132 -1319.16)" style="fill:#fd9f84"/>
            <path data-name="Path 343132" d="M1708.928 1411.347a29.986 29.986 0 0 1-8.17 4.212l-7.431 2.384-3.308 3.229-.453.441-1.18 1.151-.069-.021a33.381 33.381 0 0 1-6.85-3.363 42.705 42.705 0 0 1-3.852-2.665 76.033 76.033 0 0 1 2.066-2.762 18.181 18.181 0 0 1 3.594-3.71c2.589-1.636 10.282-.877 15.322-1.844s10-3.315 12.881-2.258c.235.087.28 1.462-1.157 1.846.867.076 2.086.991-1.395 3.358" transform="translate(-1521.465 -1275.019)" style="fill:#fd9f84"/>
            <path data-name="Path 343133" d="m1793.512 1526.132-3.484-2.861 5.248 1.14z" transform="translate(-1623.414 -1381.486)" style="fill:#b8735f"/>
            <path data-name="Path 343134" d="M813.884 1796.375h-54.655a1.484 1.484 0 0 1-1.418-1.923l9.144-29.512a1.484 1.484 0 0 1 1.418-1.045h54.655a1.484 1.484 0 0 1 1.418 1.924l-9.146 29.511a1.484 1.484 0 0 1-1.418 1.045" transform="translate(-687.214 -1599.713)" style="fill:#1b1a1f"/>
            <path data-name="Path 343135" d="M491.935 2091.725H457.05a1.085 1.085 0 1 1 0-2.169h34.885z" transform="translate(-413.524 -1895.062)" style="fill:#1b1a1f"/>
            <path data-name="Path 343136" d="M506.036 2084.368h-2.719v-1.7a.412.412 0 0 1 .412-.412h1.895a.412.412 0 0 1 .412.412z" transform="translate(-456.469 -1888.44)" style="fill:#1b1a1f"/>
            <path data-name="Path 343137" d="M552.855 2084.368h-2.719v-1.7a.412.412 0 0 1 .412-.412h1.895a.412.412 0 0 1 .412.412z" transform="translate(-498.93 -1888.44)" style="fill:#1b1a1f"/>
            <path data-name="Path 343138" d="M599.674 2084.368h-2.718v-1.7a.412.412 0 0 1 .412-.412h1.895a.412.412 0 0 1 .412.412z" transform="translate(-541.392 -1888.44)" style="fill:#1b1a1f"/>
            <path data-name="Path 343139" d="M646.494 2084.368h-2.719v-1.7a.412.412 0 0 1 .412-.412h1.895a.412.412 0 0 1 .412.412z" transform="translate(-583.853 -1888.44)" style="fill:#1b1a1f"/>
            <path data-name="Path 343140" d="M693.312 2084.368h-2.719v-1.7a.412.412 0 0 1 .412-.412h1.895a.412.412 0 0 1 .412.412z" transform="translate(-626.314 -1888.44)" style="fill:#1b1a1f"/>
            <path data-name="Path 343141" d="M833.737 1796.375h-56.669l9.74-31.436a1.484 1.484 0 0 1 1.418-1.045h54.654a1.485 1.485 0 0 1 1.418 1.924l-9.144 29.512a1.484 1.484 0 0 1-1.418 1.045" transform="translate(-704.74 -1599.713)" style="fill:#fff"/>
            <path data-name="Path 343142" d="M1114.629 1911.689a2.739 2.739 0 1 1-2.739-2.74 2.739 2.739 0 0 1 2.739 2.74" transform="translate(-1005.913 -1731.267)" style="fill:#1b1a1f"/>
            <path data-name="Path 343143" d="M2398.448 708.961a10.7 10.7 0 0 1 5.836 12.257l-22.695 94.68-23.074-2.814 25.053-97.2a10.7 10.7 0 0 1 14.88-6.926" transform="translate(-2138.987 -642.047)" style="fill:#fff"/>
            <path data-name="Path 343144" d="M2381.792 1831.266c-.086.7-2.371 1.037-5.722.966a60.053 60.053 0 0 1-6.014-.46 54.824 54.824 0 0 1-7.442-1.4c-2.4-.658-3.888-1.375-3.816-1.96.079-.631 1.955-.969 4.789-.976a57.2 57.2 0 0 1 6.949.469 56.507 56.507 0 0 1 7 1.28c2.661.689 4.335 1.457 4.257 2.078" transform="translate(-2139.242 -1657.343)" style="fill:#1b1a1f"/>
            <path data-name="Path 343145" d="m2327.286 1829.188-1.438 2.983a1.141 1.141 0 0 1-.029.061 7.169 7.169 0 0 0-.679 3l-.007 1.161a9.264 9.264 0 0 1-.709 3.5c-1.9 4.555-3.771 9.243-4.958 9.776-.475.213-1.31.18-1.173-1.23.283-2.879 1.9-8.3-.1-6.539-2.98 2.62-7.221 11.147-8.381 11.741-.713.365-1.258-.043-1.452-.848-1.133 1.85-2.617 1.062-2.5-1.763h-.007c-1.469.484-1.846-2.518-1.3-5.019-.55.023-1.019-.262-1.148-1.21-.36-2.659 4.77-9.068 4.771-9.068s1.435-1.73 3.512-4.121a3.268 3.268 0 0 0 .631-1.109l.043-.13.974-2.936a57.21 57.21 0 0 1 6.949.469 56.547 56.547 0 0 1 7 1.28" transform="translate(-2088.992 -1657.343)" style="fill-rule:evenodd;fill:#fd9f84"/>
            <path data-name="Path 343146" d="M2355.944 1987.67h-.008a.092.092 0 0 1-.084-.1c.355-4.4 4.763-11.4 4.808-11.471a.093.093 0 1 1 .157.1c-.044.07-4.427 7.033-4.78 11.386a.094.094 0 0 1-.093.085" transform="translate(-2136.572 -1792.127)" style="fill:#1b1a1f"/>
            <path data-name="Path 343147" d="M2328.944 1969.14a.093.093 0 0 1-.091-.095c.079-4.672 4.434-11.561 4.479-11.63a.093.093 0 1 1 .156.1c-.044.069-4.37 6.913-4.449 11.532a.093.093 0 0 1-.093.092" transform="translate(-2112.084 -1775.182)" style="fill:#1b1a1f"/>
            <path data-name="Path 343148" d="M2314.852 1951.03a.1.1 0 0 1-.023 0 .093.093 0 0 1-.068-.113 25.754 25.754 0 0 1 4.037-7.746.093.093 0 0 1 .13-.016.094.094 0 0 1 .017.13 25.542 25.542 0 0 0-4 7.677.094.094 0 0 1-.09.071" transform="translate(-2099.304 -1762.268)" style="fill:#1b1a1f"/>
            <path data-name="Path 343149" d="m2474.065 1865.471-7.248-1.314 6.532 5.539a20.838 20.838 0 0 1 .716-4.224" transform="translate(-2237.209 -1690.643)" style="fill-rule:evenodd;fill:#b8735f"/>
            <path data-name="Path 343150" d="m2631.536 1550.917-.01.147a.406.406 0 0 1 .01-.147" transform="translate(-2386.585 -1406.559)" style="fill:#1b1a1f"/>
            <path data-name="Path 343151" d="m2775.913 323.391-1.937 23.963 23.569 1.388 1.228-15.859-8.115-25.6z" transform="translate(-2515.777 -278.678)" style="fill:#1b1a1f"/>
            <path data-name="Path 343152" d="M2911.505 246.063c-6.086-22.462-10.064-29.237-16.94-31.653-6.46-2.27-10.2-.512-10.2-.512l2.965 11.26 4.753 34.457 27.819 13.692z" transform="translate(-2615.894 -193.399)" style="fill:#1b1a1f"/>
            <path data-name="Path 343153" d="M2843.562 385.819c3.1.979 14.132-.939 14.132-.939l.589-29.773-17.66 14.4v14.188s-.165 1.144 2.939 2.124" transform="translate(-2576.219 -322.053)" style="fill:#fd9f84"/>
            <path data-name="Path 343154" d="M2840.9 519.2v7.04l9.821-4.571z" transform="translate(-2576.469 -470.87)" style="fill:#b8735f"/>
            <path data-name="Path 343155" d="M2777.341 224.266s-5.259 14.472-2.629 22.495 16.944 2.045 18.361 0 9.438-11.483 5.348-20.607c-3.321-7.408-16.716-11.94-21.079-1.888" transform="translate(-2515.777 -198.116)" style="fill:#fd9f84"/>
            <path data-name="Path 343156" d="M2864.037 401.293a1.184 1.184 0 0 1 .1.731c-.053.333-.2.795-.583.746-.6-.075-.571-1.162-.174-1.549.338-.33.543-.153.659.073" transform="translate(-2596.597 -363.71)" style="fill:#1b1a1f"/>
            <path data-name="Path 343157" d="M2795.741 401.293a1.19 1.19 0 0 1 .1.731c-.053.333-.2.795-.584.746-.6-.075-.572-1.162-.175-1.549.338-.33.543-.153.659.073" transform="translate(-2534.658 -363.71)" style="fill:#1b1a1f"/>
            <path data-name="Path 343158" d="M2801.387 409.971a.1.1 0 0 1-.042-.01c-1.037-.52-1.263-1.128-1.129-1.524a.8.8 0 0 1 .959-.45.243.243 0 0 0 .187-.05c.576-.4 1.091-2.671 1.241-3.514a.092.092 0 0 1 .108-.075.094.094 0 0 1 .075.108c-.022.127-.561 3.112-1.318 3.634a.425.425 0 0 1-.327.08.62.62 0 0 0-.749.327c-.1.307.106.831 1.036 1.3a.093.093 0 0 1-.042.176" transform="translate(-2539.544 -366.71)" style="fill:#1b1a1f"/>
            <path data-name="Path 343159" d="M2850.1 382.36a.092.092 0 0 1-.08-.046.093.093 0 0 1 .033-.127c.053-.032 1.357-.771 4.083-.231a.093.093 0 1 1-.035.183 6.075 6.075 0 0 0-3.954.209.091.091 0 0 1-.047.013" transform="translate(-2584.734 -346.225)" style="fill:#1b1a1f"/>
            <path data-name="Path 343160" d="M2786.963 373.538a.094.094 0 0 1-.084-.053c-.006-.013-.53-1.024-3.17-1.024a.093.093 0 1 1 0-.186c2.779 0 3.317 1.085 3.339 1.131a.093.093 0 0 1-.045.124.09.09 0 0 1-.039.009" transform="translate(-2524.519 -337.623)" style="fill:#1b1a1f"/>
            <path data-name="Path 343161" d="M2827.831 481.682a5.081 5.081 0 0 0 1.266-.533 5.477 5.477 0 0 1 1.292-.732c.591-.189.726.363.509.81a2.626 2.626 0 0 1-3.364 1.371.651.651 0 0 1-.291-.226c-.207-.337.169-.547.587-.69" transform="translate(-2564.035 -435.666)" style="fill:#fff"/>
            <path data-name="Path 343162" d="M2703.034 1451.676c.232 2.062-15.665 5.956-35.564 8.2s-35.712 2.084-35.944.022 15.206-5.252 35.1-7.492 36.171-2.788 36.4-.725" transform="translate(-2386.584 -1315.389)" style="fill:#1b1a1f"/>
            <path data-name="Path 343163" d="m2641.572 1391.52-6.59 64.642h34.765l10.051-48.688-14.187-18.752z" transform="translate(-2389.72 -1259.462)" style="fill:#bbc9d8"/>
            <path data-name="Path 343164" d="M3008.483 1805.043v-31.633l3.589 12.493z" transform="translate(-2728.457 -1608.343)" style="fill:#1b1a1f"/>
            <path data-name="Path 343165" d="m2893.188 1367.494 24.273 69.292h-40.532l-24.219-66.636z" transform="translate(-2587.183 -1240.21)" style="fill:#bcc9d8"/>
            <path data-name="Path 343166" d="m2675.922 639.394-7.891-2.268c-5.431 3.1-8.927 3.875-16.785 2.01l-14 5.441-5.581 77.6c.483-2.065 15.661-5.158 35.093-7.346 19.824-2.231 36.051-2.784 36.4-.748-.124-1.021-7.85-40.306-13.543-61.228a19.037 19.037 0 0 0-13.693-13.466" transform="translate(-2386.713 -577.823)" style="fill:#fff"/>
            <path data-name="Path 343167" d="M2630.758 990.852h-.007a.094.094 0 0 1-.086-.1l4.128-57.4a.093.093 0 1 1 .186.013l-4.129 57.4a.093.093 0 0 1-.092.086" transform="translate(-2385.805 -846.402)" style="fill:#1b1a1f"/>
            <path data-name="Path 343168" d="m2808.932 699.591-18.848 40.036a12.19 12.19 0 0 0 7.222 16.412 12.7 12.7 0 0 0 15.477-7.22l17.791-40a11.763 11.763 0 0 0-5.2-14.832 11.763 11.763 0 0 0-16.438 5.607" transform="translate(-2529.458 -628.071)" style="fill:#fff"/>
            <path data-name="Path 343169" d="m2366.936 967.96-7.278 22.072 44.077 16.583a15.52 15.52 0 0 0 19.881-8.62l3.122-7.617z" transform="translate(-2140.024 -877.863)" style="fill:#fff"/>
            <path data-name="Path 343170" d="M2361.323 971.386c-.021.161-.045.326-.07.494a47.24 47.24 0 0 1-1.792 7.224 48.7 48.7 0 0 1-2.591 6.478q-.177.358-.353.687c-1.141 2.145-2.192 3.389-2.843 3.176-.748-.244-.791-2.354-.245-5.373q.072-.4.159-.826a51.815 51.815 0 0 1 1.494-5.568 54.317 54.317 0 0 1 1.7-4.551 34.84 34.84 0 0 1 1.25-2.627c1.138-2.136 2.187-3.375 2.835-3.163.633.206.762 1.749.454 4.049" transform="translate(-2134.041 -877.277)" style="fill:#1b1a1f"/>
            <path data-name="Path 343171" d="M2481.606 983.838a.092.092 0 0 1-.033-.006l-45.563-17.085a.093.093 0 0 1-.054-.12.094.094 0 0 1 .12-.055l45.562 17.085a.093.093 0 0 1-.032.18" transform="translate(-2209.214 -876.6)" style="fill:#1b1a1f"/>
            <path data-name="Path 343172" d="M2408.554 948.316a15.551 15.551 0 0 1-5.487-1l-44.349-16.688a.093.093 0 0 1 .065-.174l44.349 16.688a15.4 15.4 0 0 0 19.531-8.231l16-36.492a.093.093 0 1 1 .17.075l-16 36.492a15.592 15.592 0 0 1-14.279 9.333" transform="translate(-2139.117 -818.37)" style="fill:#1b1a1f"/>
            <path data-name="Path 343173" d="M2837.07 859.12a.09.09 0 0 1-.039-.009.093.093 0 0 1-.045-.124l12.467-26.48a.092.092 0 0 1 .123-.044.093.093 0 0 1 .045.124l-12.467 26.48a.093.093 0 0 1-.084.054" transform="translate(-2572.916 -754.97)" style="fill:#1b1a1f"/>
            <path data-name="Path 343174" d="M2788.1 230.811a25.6 25.6 0 0 0-8.7-1.712 16.665 16.665 0 0 1 .973-5.134c-1.6 1.13-2.42 3.658-2.816 4.963a25.568 25.568 0 0 0-6.462.7 18.932 18.932 0 0 1 1.535-4.726 12.312 12.312 0 0 1 3.373-4.772 10.838 10.838 0 0 1 9.226-2.405l.145.03c4.849 1.026 2.723 13.054 2.723 13.054" transform="translate(-2513.168 -197.254)" style="fill:#1b1a1f"/>
            <path data-name="Path 343175" d="M2901 226s1.575 8.852 4.947 9.419c0 0-4.2 21.152 5.122 21.965 12.4 1.082 14.8 2.682 14.8 2.682l-12.514-32.572s-6.751-9.162-10.748-9.773-5.693.059-5.693.059z" transform="translate(-2627.273 -197.221)" style="fill:#1b1a1f"/>
            <path data-name="Path 343176" d="M2931.408 371.233s2.836-5.058 6.6-4.384 1.8 7-2.089 9.234z" transform="translate(-2658.556 -332.647)" style="fill:#fd9f84"/>
            <path data-name="Path 343177" d="M2966.379 398.694a.094.094 0 0 1-.064-.025.1.1 0 0 1-.028-.068.1.1 0 0 1 .024-.064l2.48-2.633a.093.093 0 0 1 .161.064.092.092 0 0 1-.025.064l-2.48 2.632a.092.092 0 0 1-.068.029" transform="translate(-2690.189 -359.027)" style="fill:#1b1a1f"/>
            <path data-name="Path 343178" d="M2345.848 1007.754a47.266 47.266 0 0 1-1.792 7.224 48.774 48.774 0 0 1-2.591 6.478q-.178.358-.354.687l-.622-.443-2.465-1.754-1.95-1.388 5.3-9.558 1.184-2.132 2.832.762z" transform="translate(-2118.635 -913.152)" style="fill-rule:evenodd;fill:#fd9f84"/>
            <path data-name="Path 343179" d="M2166.692 874.191a2.037 2.037 0 0 0-.824-.509c-1.975-.641-8.85-1.953-10.964-2.321-1.336-.232-2.845 1.3-1.736 2.566.568.652 1.728.76 3.7 1.212a43.045 43.045 0 0 1 7.141 2.646l-5.8 9.81 11.634 8.047 6.488-11.691z" transform="translate(-1952.405 -790.235)" style="fill-rule:evenodd;fill:#fd9f84"/>
            <path data-name="Path 343180" d="M2134.992 892.5s-8.764-3.493-12.424-4.814c-2.223-.8-3.785 2.016-1.9 3.158 1.337.812 12.449 6.207 12.449 6.207z" transform="translate(-1922.514 -804.935)" style="fill-rule:evenodd;fill:#fd9f84"/>
            <path data-name="Path 343181" d="M2135.416 931.073s-10.448-5.274-11.6-5.213-2.892.606-2.346 2.606 12.806 7.638 12.806 7.638z" transform="translate(-1923.917 -839.681)" style="fill-rule:evenodd;fill:#fd9f84"/>
            <path data-name="Path 343182" d="M2139.871 978.745s-6.1-3.355-6.774-3.859c-1.216-.914-.31-3.778 2.214-2.869s9 4 9 4z" transform="translate(-1934.066 -881.383)" style="fill-rule:evenodd;fill:#fd9f84"/>
            <path data-name="Path 343183" d="M2159.3 892.47a.1.1 0 0 1-.033-.006l-10.911-4.214a.093.093 0 1 1 .067-.174l10.911 4.214a.093.093 0 0 1-.034.18" transform="translate(-1948.339 -805.409)" style="fill:#1b1a1f"/>
            <path data-name="Path 343184" d="M2147.6 931.4a.087.087 0 0 1-.034-.007l-10.2-4.066a.094.094 0 0 1-.052-.121.092.092 0 0 1 .12-.052l10.2 4.066a.093.093 0 0 1-.035.18" transform="translate(-1938.372 -840.854)" style="fill:#1b1a1f"/>
            <path data-name="Path 343185" d="M2150.81 976.522a.092.092 0 0 1-.036-.008l-8.261-3.59a.093.093 0 1 1 .073-.171l8.261 3.59a.093.093 0 0 1-.037.178" transform="translate(-1943.039 -882.203)" style="fill:#1b1a1f"/>
            <path data-name="Path 343186" d="m2348.333 1091.436 3.746-5.106-.472 7.435z" transform="translate(-2129.753 -985.216)" style="fill-rule:evenodd;fill:#b8735f"/>
        </g>
    </g>
</svg>
